<?xml version="1.0" encoding="UTF-8"?><svg id="Capa_2" xmlns="http://www.w3.org/2000/svg" viewBox="0 0 256 256"><defs><style>.cls-1{fill:#be1677;stroke-width:0px;}</style></defs><g id="Capa_1-2"><path class="cls-1" d="m78.9,81.13l98.11,72.23c-1.54,25.7-22.93,46.13-49.01,46.13s-49.1-22.03-49.1-49.1v-69.26Zm98.2,57.4v-57.4l-38.98,28.7,38.98,28.7Zm-23.91-54.7c-3.94-10.23-13.99-17.33-25.19-17.33s-21.25,7.1-25.19,17.33l25.19,18.55,25.19-18.55Zm102.81,44.17c0,70.58-57.42,128-128,128S0,198.58,0,128,57.42,0,128,0s128,57.42,128,128Zm-66.9-52.72c0-3.43-1.9-6.52-4.96-8.07-3.06-1.55-6.68-1.25-9.44.79l-11.6,8.54c-2.49-5.15-6.11-9.75-10.61-13.39-6.9-5.58-15.6-8.65-24.49-8.65s-17.59,3.07-24.49,8.65c-4.5,3.63-8.11,8.24-10.61,13.39l-11.61-8.54c-2.76-2.03-6.38-2.33-9.44-.79-3.06,1.55-4.96,4.64-4.96,8.07v75.12c0,33.69,27.41,61.1,61.1,61.1s61.06-27.37,61.1-61.02c0-.05,0-.1,0-.14v-75.05Z"/></g></svg>