<?xml version="1.0" encoding="UTF-8"?><svg id="Capa_2" xmlns="http://www.w3.org/2000/svg" xmlns:xlink="http://www.w3.org/1999/xlink" viewBox="0 0 334.55 81.23"><defs><style>.cls-1{fill:url(#linear-gradient);}.cls-1,.cls-2,.cls-3,.cls-4,.cls-5,.cls-6,.cls-7,.cls-8,.cls-9,.cls-10,.cls-11,.cls-12,.cls-13,.cls-14{stroke-width:0px;}.cls-2{fill:url(#linear-gradient-11);}.cls-3{fill:url(#linear-gradient-12);}.cls-4{fill:url(#linear-gradient-13);}.cls-5{fill:url(#linear-gradient-10);}.cls-6{fill:url(#linear-gradient-14);}.cls-7{fill:url(#linear-gradient-4);}.cls-8{fill:url(#linear-gradient-2);}.cls-9{fill:url(#linear-gradient-3);}.cls-10{fill:url(#linear-gradient-8);}.cls-11{fill:url(#linear-gradient-9);}.cls-12{fill:url(#linear-gradient-7);}.cls-13{fill:url(#linear-gradient-5);}.cls-14{fill:url(#linear-gradient-6);}</style><linearGradient id="linear-gradient" x1="-11.94" y1="23.64" x2="337.07" y2="22.62" gradientUnits="userSpaceOnUse"><stop offset="0" stop-color="#ce1567"/><stop offset="1" stop-color="#7a1dbc"/></linearGradient><linearGradient id="linear-gradient-2" x1="-11.93" y1="29.1" x2="337.09" y2="28.09" xlink:href="#linear-gradient"/><linearGradient id="linear-gradient-3" x1="-11.93" y1="28.77" x2="337.09" y2="27.75" xlink:href="#linear-gradient"/><linearGradient id="linear-gradient-4" x1="-11.93" y1="28.89" x2="337.09" y2="27.87" xlink:href="#linear-gradient"/><linearGradient id="linear-gradient-5" x1="-11.93" y1="29.03" x2="337.09" y2="28.01" xlink:href="#linear-gradient"/><linearGradient id="linear-gradient-6" x1="-11.94" y1="24.6" x2="337.08" y2="23.59" xlink:href="#linear-gradient"/><linearGradient id="linear-gradient-7" x1="-11.93" y1="29.23" x2="337.09" y2="28.22" xlink:href="#linear-gradient"/><linearGradient id="linear-gradient-8" x1="-11.93" y1="29.18" x2="337.09" y2="28.17" xlink:href="#linear-gradient"/><linearGradient id="linear-gradient-9" x1="-11.92" y1="31.53" x2="337.1" y2="30.51" xlink:href="#linear-gradient"/><linearGradient id="linear-gradient-10" x1="-11.92" y1="31.55" x2="337.1" y2="30.54" xlink:href="#linear-gradient"/><linearGradient id="linear-gradient-11" x1="-11.97" y1="13.3" x2="337.04" y2="12.29" xlink:href="#linear-gradient"/><linearGradient id="linear-gradient-12" x1="-11.82" y1="66.29" x2="337.2" y2="65.28" xlink:href="#linear-gradient"/><linearGradient id="linear-gradient-13" x1="-11.81" y1="68.13" x2="337.2" y2="67.12" xlink:href="#linear-gradient"/><linearGradient id="linear-gradient-14" x1="-11.84" y1="58.8" x2="337.18" y2="57.79" xlink:href="#linear-gradient"/></defs><g id="Capa_1-2"><path class="cls-1" d="m20.64,0c11.69,0,17.57,6.68,17.57,15.1,0,6.15-3.34,11.49-10.35,13.63l10.62,18.37h-14.63l-9.35-17.37h-1.4v17.37H0V0h20.64Zm-1.07,10.96h-6.48v9.82h6.48c3.54,0,5.34-1.74,5.34-4.94,0-2.94-1.8-4.88-5.34-4.88Z"/><path class="cls-8" d="m92.43,48.01c-10.42,0-17.37-5.61-17.9-13.09h12.69c.33,2.47,2.4,3.81,5.14,3.81,2.2,0,3.47-1.07,3.47-2.41,0-5.48-19.91-1-19.91-14.76,0-6.55,5.41-11.96,15.57-11.96s15.57,5.68,16.43,13.09h-11.82c-.4-2.34-2.07-3.74-4.88-3.74-2.14,0-3.27.87-3.27,2.27,0,5.34,19.97,1.07,20.04,15.3,0,6.55-5.88,11.49-15.57,11.49Z"/><path class="cls-9" d="m127.98,47.57c-11.09,0-19.04-7.28-19.04-19.24s7.82-19.17,19.04-19.17,18.91,7.15,18.91,18.77c0,1-.07,2.07-.2,3.07h-24.78c.27,4.34,2.61,6.08,5.55,6.08,2.54,0,3.94-1.4,4.68-2.94h13.96c-1.74,7.68-8.75,13.43-18.1,13.43Zm-6.01-22.91h11.56c0-3.34-2.61-5.14-5.61-5.14s-5.34,1.74-5.95,5.14Z"/><path class="cls-7" d="m145.28,9.62h13.03l4.21,24.85,5.54-24.85h14.03l5.75,24.92,4.14-24.92h12.29l-9.55,37.48h-14.7l-5.21-22.71-5.41,22.71h-14.63l-9.49-37.48Z"/><path class="cls-13" d="m218.5,9.15c5.34,0,9.09,2.34,11.02,5.68v-5.21h13.09v37.48h-13.09v-5.21c-1.94,3.34-5.75,5.68-11.02,5.68-8.88,0-15.97-7.28-15.97-19.24s7.08-19.17,15.97-19.17Zm4.21,11.42c-3.74,0-6.81,2.67-6.81,7.75s3.07,7.82,6.81,7.82,6.81-2.74,6.81-7.82-3.14-7.75-6.81-7.75Z"/><path class="cls-14" d="m248.83,20.51h-4.61v-10.89h4.61V.53h13.16v9.09h6.81v10.89h-6.81v12.56c0,2,.87,2.87,3.07,2.87h3.81v11.16h-5.68c-8.28,0-14.36-3.47-14.36-14.23v-12.36Z"/><path class="cls-12" d="m288.45,47.57c-11.09,0-19.04-7.28-19.04-19.24s7.82-19.17,19.04-19.17,18.91,7.15,18.91,18.77c0,1-.07,2.07-.2,3.07h-24.78c.27,4.34,2.61,6.08,5.54,6.08,2.54,0,3.94-1.4,4.68-2.94h13.96c-1.74,7.68-8.75,13.43-18.1,13.43Zm-6.01-22.91h11.56c0-3.34-2.61-5.14-5.61-5.14s-5.34,1.74-5.95,5.14Z"/><path class="cls-10" d="m322.46,47.1h-13.09V9.62h13.09v6.61c2.81-4.08,7.08-6.95,12.09-6.95v13.96h-3.67c-5.41,0-8.42,1.74-8.42,7.48v16.37Z"/><path class="cls-11" d="m71.78,12.83v22.26c0,7.38-5.42,13.64-12.73,14.69,1.43-3.66,5.52-15.64,2.17-25.57-.4-1.22-.92-2.39-1.55-3.5-.42-.74-.89-1.44-1.41-2.11,1.73-1.72,3.79-3.07,6.06-3.95,2.39-.94,4.91-1.56,7.47-1.82h0Z"/><path class="cls-5" d="m41.63,12.83v22.26c0,8.2,6.64,14.84,14.84,14.84,0,0,14.84-33.62-14.84-37.1Z"/><path class="cls-2" d="m63.2,12.61c-2.42.98-4.62,2.42-6.48,4.26-1.86-1.83-4.07-3.28-6.49-4.27,2.68-3.58,7.75-4.31,11.33-1.63.62.47,1.18,1.02,1.64,1.64Z"/><path class="cls-3" d="m57.87,51.09v30.15h-2.32v-30.28c.69.09,1.39.14,2.09.14h.23Z"/><path class="cls-4" d="m76.42,59.2c-.23,9.51-7.88,17.16-17.39,17.39.23-9.51,7.88-17.16,17.39-17.39Z"/><path class="cls-6" d="m41.63,52.25c-.45,6.6,4.54,12.31,11.13,12.75.54.04,1.08.04,1.62,0,.17-3.44-1.09-6.79-3.48-9.28-2.48-2.39-5.84-3.65-9.28-3.48Z"/></g></svg>